# xmcd
#
# Track frame offsets:
#	182
#	10752
#	21125
#	32802
#	43055
#	54567
#	64792
#	74605
#	89120
#	97712
#	108762
#	121227
#	133347
#	144327
#	153790
#	165622
#	172937
#	183735
#	196795
#	210177
#
# Disc length: 2989 seconds
#
# Revision: 1
# Processed by: cddbd v1.5.2PL0 Copyright (c) Steve Scherf et al.
# Submitted via: CDex 1.51
#
DISCID=0a0bab14
DTITLE=Various Artist - Louisiana R&B
DYEAR=1991
DGENRE=R&B-New Orleans/Swamp
TTITLE0=Guitar Gable and King Karl - Walkin' in the Park
TTITLE1=Henry Clement - So in Love With You
TTITLE2=Billy Tate - Special Lesson No. 1
TTITLE3=Gaynotes, (The) - Plea of Love
TTITLE4=Lester Robertson - Ooh My Dear
TTITLE5=Lionel Torrence - Rooty Tooty
TTITLE6=Carol Fran - One Look at You Daddy
TTITLE7=Classie Ballou - Hey Ma Ma
TTITLE8=Wonder Boy Travis - You Know Yeah
TTITLE9=Honey Boy Allen - Ford V-8
TTITLE10=Leroy Washington - Long Hair, Knock Knees and Bow Legs
TTITLE11=Lightning Slim - Hello Mary Lee
TTITLE12=Slim Harpo - I Need Money
TTITLE13=Lonesome Sundown - I'm A Samplin' Man
TTITLE14=Jay Nelson - Rocka Me All Night Long
TTITLE15=Lil' Bob - I Wanna Be Your Man
TTITLE16=Wonder Boy Travis - She's Got Eyes Like A Cat
TTITLE17=Charles Sheffield - the Kangaroo
TTITLE18=Tabby Thomas - Popeye Train
TTITLE19=Katie Webster - Mama Don't Allow
EXTD=YEAR: 1991
EXTT0=
EXTT1=
EXTT2=
EXTT3=
EXTT4=
EXTT5=
EXTT6=
EXTT7=
EXTT8=
EXTT9=
EXTT10=
EXTT11=
EXTT12=
EXTT13=
EXTT14=
EXTT15=
EXTT16=
EXTT17=
EXTT18=
EXTT19=
PLAYORDER=
